<?xml version="1.0" encoding="utf-8"?>
<!-- Generator: Adobe Illustrator 26.1.0, SVG Export Plug-In . SVG Version: 6.00 Build 0)  -->
<svg version="1.1" id="Ebene_1" xmlns="http://www.w3.org/2000/svg" xmlns:xlink="http://www.w3.org/1999/xlink" x="0px" y="0px"
	 width="124.716362px" height="32.3674965px" viewBox="0 0 124.716362 32.3674965"
	 style="enable-background:new 0 0 124.716362 32.3674965;" xml:space="preserve">
<path d="M28.476368,32.0600014l-28.420002-9.3800011c-0.0400009-0.0099983-0.0699997-0.0600014-0.0499992-0.1100006
	l0.4799995-1.4599991c0.0099983-0.0400009,0.0600014-0.0699997,0.1100006-0.0499992l28.8400002,9.5200005
	c0.6199989,0.2099991,1.2900009,0.2099991,1.9099998,0l28.8399963-9.5200005
	c0.0400009-0.0099983,0.0899963,0.0099983,0.1100006,0.0499992l0.4800034,1.4599991
	c0.0100021,0.0400009-0.0100021,0.0900002-0.0500031,0.1100006L32.306366,32.0600014
	C31.0563698,32.4699974,29.7163696,32.4699974,28.476368,32.0600014z"/>
<path d="M74.5363693,9.2999992V4.4399986h1.8799973v12.4099998h-1.8799973v-5.7900009H69.196373v5.7900009h-1.8799973V4.4399986
	h1.8799973v4.8600006H74.5363693z"/>
<path d="M86.8763657,13.8400002l-1.4000015,3.0099983H83.466362l6.1399994-13.1899986l5.9199982,13.1899986h-2.0500031
	l-1.3000031-3.0099983H86.8763657z M89.5663681,7.8699989l-1.9199982,4.2099991h3.7600021L89.5663681,7.8699989z"/>
<path d="M107.496376,7.1999969c-0.5800018-0.9500008-1-1.2299995-1.8600006-1.2299995
	c-1.0200043,0-1.8000031,0.6699982-1.8000031,1.5400009c0,0.4099998,0.1900024,0.7599983,0.6000061,1.0400009
	c0.3500061,0.2400017,0.3500061,0.2400017,1.9900055,0.9099998c2.0099945,0.8400002,2.8999939,1.9500008,2.8999939,3.670002
	c0,2.2700005-1.6900024,3.9599991-3.9799957,3.9599991c-1.3600006,0-2.5099945-0.5999985-3.2400055-1.6599998
	c-0.4100037-0.5999985-0.6000061-1.0800018-0.7299957-2.0099983l1.8999939-0.4300003
	c0.0899963,0.7400017,0.1699982,1.0400009,0.3500061,1.3600006c0.3200073,0.5999985,1.0200043,0.9700012,1.7899933,0.9700012
	c1.1699982,0,2.0299988-0.8699989,2.0299988-2.0699997c0-0.7099991-0.3000031-1.25-0.8600006-1.6399994
	c-0.4299927-0.2799988-0.4299927-0.2799988-2.1000061-0.9900017c-1.7299957-0.7299995-2.5500031-1.75-2.5500031-3.1399994
	c0-1.8800011,1.6000061-3.2900009,3.7200012-3.2900009c1.4900055,0,2.5099945,0.6300011,3.3500061,2.079998L107.496376,7.1999969z"
	/>
<path d="M119.6363754,16.8499985h-1.8800049V4.4399986h2.1199951c1.8999939,0,2.6799927,0.1899986,3.4799957,0.7799988
	c0.8399963,0.6500015,1.3600006,1.7700005,1.3600006,2.9000015c0,1-0.4100037,1.9900017-1.0800018,2.6199989
	c-0.7299957,0.7099991-1.7700043,1.0600014-3.1300049,1.0600014h-0.8699951v5.0499992H119.6363754z M120.3263626,10.079998
	c0.9700012,0,1.5299988-0.1500015,1.9499969-0.5c0.3899994-0.3300018,0.6300049-0.8899994,0.6300049-1.4900017
	s-0.2599945-1.1500015-0.6900024-1.4700012c-0.4499969-0.3199997-1-0.4500008-1.9700012-0.4500008h-0.6100006v3.9099998
	C119.6363602,10.0799942,120.3263626,10.0799942,120.3263626,10.079998z"/>
<path d="M26.5463676,25.0099983l0.9300003-0.8499985c0.0299988-0.0299988,0.0400009-0.0800018,0.0099983-0.1199989
	L12.0663681,6.8499985c-0.0299988-0.0400009-0.0900002-0.0400009-0.1199989-0.0099983l-1.2599983,1.1500015
	c-0.0299988,0.0299988-0.0400009,0.0900002,0,0.1199989L26.4263687,25
	C26.4563675,25.0399971,26.5163689,25.0399971,26.5463676,25.0099983z"/>
<path d="M25.6563683,26.5299988l0.5900002-1.1100006c0.0200005-0.0400009,0.0099983-0.0900002-0.0299988-0.1100006
	L5.8663669,14.3699989c-0.0400009-0.0200005-0.0900002-0.0099983-0.1199989,0.0400009L4.956367,15.9199982
	c-0.0200005,0.0400009-0.0099983,0.0900002,0.0400009,0.1100006l20.5400009,10.5299988
	C25.5763702,26.5900002,25.6263695,26.5699997,25.6563683,26.5299988z"/>
<path d="M27.9463692,23.8699989l1.1699982-0.4700012c0.0400009-0.0200005,0.0600014-0.0699997,0.0499992-0.1100006
	L20.6963654,1.8099976c-0.0200005-0.0400009-0.0699997-0.0699997-0.1100006-0.0499992l-1.5800018,0.6399994
	c-0.0400009,0.0200005-0.0600014,0.0699997-0.0499992,0.1100006l8.8899994,21.3099976
	C27.8463669,23.8699989,27.8963699,23.8899994,27.9463692,23.8699989z"/>
<path d="M34.2863693,25.0099983l-0.9300003-0.8499985c-0.0299988-0.0299988-0.0400009-0.0800018-0.0100021-0.1199989
	L48.7563705,6.8500023c0.0299988-0.0400009,0.0899963-0.0400009,0.1200027-0.0099983l1.2600021,1.1500015
	c0.0299988,0.0299988,0.0400009,0.0900002,0,0.1199989L34.4063721,25.0099983
	C34.3763657,25.0399971,34.3163681,25.0399971,34.2863693,25.0099983z"/>
<path d="M35.1763687,26.5299988l-0.5899963-1.1100006c-0.0199966-0.0400009-0.0100021-0.0900002,0.0299988-0.1100006
	l20.3399963-10.9300003c0.0400009-0.0200005,0.0899963-0.0099983,0.1200027,0.0400009l0.7900009,1.5099983
	c0.0199966,0.0400009,0.0100021,0.0900002-0.0400009,0.1100006L35.2963715,26.5699997
	C35.2563705,26.5900002,35.1963654,26.5699997,35.1763687,26.5299988z"/>
<path d="M32.8863678,23.8699989l-1.1699982-0.4700012c-0.0400009-0.0200005-0.0600014-0.0699997-0.0400009-0.1100006
	l8.4700012-21.4799995c0.0199966-0.0400009,0.0699997-0.0699997,0.1100006-0.0499992l1.5800018,0.6399994
	c0.0400009,0.0200005,0.0599976,0.0699997,0.0500031,0.1100006L32.996376,23.8199959
	C32.9863663,23.8699989,32.9363708,23.8899994,32.8863678,23.8699989z"/>
<path d="M31.0263672,23.2599983h-1.25c-0.0499992,0-0.0800018-0.0400009-0.0800018-0.0800018L29.4663696,0.0900002
	C29.4663696,0.0400009,29.5063705,0,29.5463715,0h1.7099991c0.0499992,0,0.0900002,0.0400009,0.0800018,0.0900002
	l-0.2200012,23.0900002C31.1163673,23.2199974,31.0763702,23.2599983,31.0263672,23.2599983z"/>
<g>
	<path d="M69.1163712,22.3699989v-1.2400017h0.4800034v3.1599998h-0.4800034v-1.4700012h-1.3600006v1.4700012h-0.4800034v-3.1599998
		h0.4800034v1.2400017H69.1163712z"/>
	<path d="M71.9863663,21.579998v0.7599983h1.2300034v0.4500008h-1.2300034v1.0499992h1.2600021v0.4500008h-1.7399979v-3.1599998
		h1.7399979v0.4500008H71.9863663z"/>
	<path d="M75.5063705,24.2899971h-0.4800034v-3.1599998h0.4800034V24.2899971z"/>
	<path d="M77.4263687,21.1299973h0.6600037c0.5400009,0,0.8600006,0.0900002,1.1699982,0.3100014
		c0.3899994,0.2900009,0.6100006,0.7400017,0.6100006,1.2700005c0,0.5400009-0.2200012,0.9799995-0.6299973,1.2799988
		c-0.3199997,0.2299995-0.5899963,0.2999992-1.1500015,0.2999992h-0.6500015v-3.1599998H77.4263687z M78.1163712,23.8400002
		c0.3799973,0,0.6200027-0.0699997,0.8399963-0.2299995c0.2699966-0.2000008,0.4300003-0.5299988,0.4300003-0.9000015
		c0-0.3699989-0.1600037-0.7099991-0.4300003-0.9099998c-0.2099991-0.1599998-0.4599991-0.2200012-0.8399963-0.2200012h-0.2099991
		v2.2599983C77.9063721,23.8399963,78.1163712,23.8399963,78.1163712,23.8400002z"/>
	<path d="M82.1463699,21.579998v0.7599983h1.2300034v0.4500008h-1.2300034v1.0499992h1.2600021v0.4500008h-1.7399979v-3.1599998
		h1.7399979v0.4500008H82.1463699z"/>
	<path d="M85.6663666,23.8400002h0.9300003v0.4500008h-1.4100037v-3.1599998h0.4800034V23.8400002z"/>
	<path d="M88.2063675,21.1299973h0.4700012c0.3799973,0,0.5899963,0.0499992,0.7600021,0.1599998
		c0.2099991,0.1500015,0.3600006,0.4399986,0.3600006,0.7200012c0,0.2299995-0.0800018,0.4099998-0.2600021,0.5699997
		c0.3300018,0.1100006,0.5400009,0.4199982,0.5400009,0.7999992c0,0.2599983-0.1100006,0.5099983-0.3199997,0.6800003
		c-0.2099991,0.1699982-0.4100037,0.2299995-0.8300018,0.2299995h-0.7200012V21.1299973z M88.8263702,22.4899979
		c0.1900024,0,0.3000031-0.0299988,0.3799973-0.1100006c0.0800018-0.0800018,0.1299973-0.2200012,0.1299973-0.3600006
		c0-0.1300011-0.0500031-0.2599983-0.1299973-0.3400002c-0.0800018-0.0800018-0.1900024-0.1100006-0.3600006-0.1100006h-0.1699982
		v0.9199982L88.8263702,22.4899979z M88.9763718,23.8400002c0.2099991,0,0.3399963-0.0299988,0.4400024-0.0999985
		c0.1100006-0.0800018,0.1900024-0.2299995,0.1900024-0.3699989s-0.0800018-0.2900009-0.1900024-0.3699989
		c-0.1100006-0.0800018-0.25-0.0999985-0.4899979-0.0999985h-0.2399979v0.9500008h0.2899933V23.8400002z"/>
	<path d="M92.3163681,21.579998v0.7599983h1.2300034v0.4500008h-1.2300034v1.0499992h1.2600021v0.4500008h-1.7399979v-3.1599998
		h1.7399979v0.4500008H92.3163681z"/>
	<path d="M97.4063644,24.2899971h-0.5800018l-0.8999939-1.2900009h-0.0899963v1.2900009H95.356369v-3.1599998h0.5600052
		c0.4100037,0,0.6300049,0.0499992,0.8300018,0.1800003c0.2299957,0.1599998,0.3800049,0.4399986,0.3800049,0.7400017
		c0,0.4500008-0.2799988,0.7999992-0.6999969,0.8899994L97.4063644,24.2899971z M95.9863663,22.579998
		c0.2100067,0,0.3699951-0.0299988,0.4799957-0.1100006c0.1199951-0.0900002,0.1999969-0.2400017,0.1999969-0.4099998
		c0-0.1500015-0.0700073-0.2900009-0.1799927-0.3699989c-0.1100006-0.0800018-0.25-0.1100006-0.4700012-0.1100006h-0.1699982v1
		H95.9863663z"/>
	<path d="M101.9063644,22.6399994v0.1500015c0,0.4099998-0.0899963,0.7000008-0.2799988,0.9599991
		c-0.2700043,0.3699989-0.7200012,0.5999985-1.1999969,0.5999985c-0.8800049,0-1.6100006-0.7299995-1.6100006-1.6300011
		c0-0.9199982,0.7299957-1.6500015,1.6499939-1.6500015c0.3500061,0,0.6799927,0.1100006,0.9499969,0.3100014
		c0.1199951,0.0900002,0.1999969,0.1699982,0.3500061,0.3400002l-0.3399963,0.3300018
		c-0.2700043-0.3600006-0.5599976-0.5200005-0.9499969-0.5200005c-0.6699982,0-1.1799927,0.5200005-1.1799927,1.2000008
		c0,0.3499985,0.1300049,0.6399994,0.3800049,0.8699989c0.2200012,0.2000008,0.5,0.3199997,0.7700043,0.3199997
		c0.4700012,0,0.8999939-0.3600006,0.9400024-0.7999992h-0.7899933v-0.4500008h1.309967V22.6399994z"/>
</g>
<g>
	<path d="M106.7663651,23.7399979l-0.2200012,0.5499992h-0.8699951l1.2100067-3.1599998h0.8899994l1.1900024,3.1599998h-0.8800049
		l-0.1999969-0.5499992H106.7663651z M107.3463669,22.1099968l-0.3500061,1.0099983h0.6800079L107.3463669,22.1099968z"/>
	<path d="M112.2563705,21.9499969c-0.1799927-0.1500015-0.3500061-0.2099991-0.5399933-0.2099991
		c-0.1999969,0-0.3500061,0.1199989-0.3500061,0.2700005c0,0.0600014,0.0299988,0.1199989,0.0800018,0.1599998
		c0.0899963,0.0800018,0.1199951,0.0900002,0.4900055,0.2000008c0.5500031,0.1599998,0.7799988,0.4199982,0.7799988,0.8899994
		c0,0.3600006-0.1100006,0.6300011-0.3200073,0.8199997c-0.2299957,0.1899986-0.5500031,0.2999992-0.9100037,0.2999992
		c-0.3699951,0-0.7599945-0.1199989-1.0899963-0.3600006l0.3500061-0.6599998
		c0.2599945,0.2200012,0.4799957,0.3199997,0.7200012,0.3199997s0.3999939-0.1199989,0.3999939-0.3100014
		c0-0.1699982-0.1100006-0.25-0.4900055-0.3600006c-0.3500061-0.0999985-0.4900055-0.1599998-0.6000061-0.2599983
		c-0.1699982-0.1399994-0.25-0.3499985-0.25-0.6199989c0-0.6300011,0.4400024-1.0600014,1.0700073-1.0600014
		c0.3300018,0,0.6799927,0.0900002,1,0.2599983L112.2563705,21.9499969z"/>
	<path d="M115.2063675,24.2899971h-0.8200073v-3.1599998h0.8200073V24.2899971z"/>
	<path d="M117.8163681,23.7399979l-0.2200012,0.5499992h-0.8699951l1.2100067-3.1599998h0.8899994l1.1900024,3.1599998h-0.8800049
		l-0.1999969-0.5499992H117.8163681z M118.3863754,22.1099968l-0.3500061,1.0099983h0.6799927L118.3863754,22.1099968z"/>
	<path d="M121.5463638,21.1299973h0.8200073l1.5099945,1.9300003v-1.9300003h0.8200073v3.1599998h-0.8200073l-1.5099945-1.9300003
		v1.9300003h-0.8200073V21.1299973z"/>
</g>
<g>
	<path d="M68.9663696,27.8099976c-0.1800003-0.1500015-0.3499985-0.2099991-0.5400009-0.2099991
		c-0.1999969,0-0.3499985,0.1199989-0.3499985,0.2700005c0,0.0600014,0.0299988,0.1199989,0.0800018,0.1599998
		c0.0899963,0.0800018,0.1200027,0.0900002,0.4899979,0.2000008c0.5500031,0.1599998,0.7799988,0.4199982,0.7799988,0.8899994
		c0,0.3600006-0.1100006,0.6300011-0.3199997,0.8199997c-0.2300034,0.1899986-0.5500031,0.2999992-0.9100037,0.2999992
		c-0.3700027,0-0.7600021-0.1199989-1.0899963-0.3600006l0.3499985-0.6599998
		c0.2600021,0.2200012,0.4800034,0.3199997,0.7200012,0.3199997s0.4000015-0.1199989,0.4000015-0.3100014
		c0-0.1699982-0.1100006-0.25-0.4899979-0.3600006c-0.3499985-0.0999985-0.4899979-0.1599998-0.5999985-0.2599983
		c-0.1699982-0.1399994-0.25-0.3499985-0.25-0.6199989c0-0.6300011,0.4400024-1.0600014,1.0699997-1.0600014
		c0.3300018,0,0.6800003,0.0900002,1,0.2599983L68.9663696,27.8099976z"/>
	<path d="M71.9463654,30.1499977h-0.8199997v-2.4599991h-0.6699982v-0.7000008h2.1699982v0.7000008h-0.6800003V30.1499977z"/>
	<path d="M74.606369,28.6999969c0,0.3600006,0.0100021,0.4300003,0.0899963,0.5600014
		C74.7863617,29.4099998,74.9563675,29.5,75.1563644,29.5c0.2099991,0,0.3899994-0.0999985,0.4800034-0.2599983
		c0.0699997-0.1199989,0.0899963-0.2200012,0.0899963-0.5499992v-1.7099991h0.8199997v1.8199997
		c0,0.4599991-0.0800018,0.7099991-0.3099976,0.9700012c-0.2600021,0.2900009-0.6299973,0.4500008-1.0899963,0.4500008
		c-0.4800034,0-0.9100037-0.1800003-1.1299973-0.4700012c-0.1699982-0.2200012-0.2300034-0.4799995-0.2300034-0.9399986v-1.8199997
		h0.8199997V28.6999969z"/>
	<path d="M78.0063705,27h1.2099991c0.8300018,0,1.5500031,0.7299995,1.5500031,1.5800018
		c0,0.8499985-0.7200012,1.5800018-1.5500031,1.5800018h-1.2099991V27z M79.0163651,29.4599991
		c0.3099976,0,0.5100021-0.0800018,0.6699982-0.2599983c0.1500015-0.1599998,0.2300034-0.3800011,0.2300034-0.6199989
		c0-0.2299995-0.0800018-0.4500008-0.2300034-0.6199989c-0.1699982-0.1800003-0.3600006-0.2599983-0.6699982-0.2599983h-0.1900024
		v1.7700005h0.1900024V29.4599991z"/>
	<path d="M82.9163666,30.1499977h-0.8199997v-3.1599998h0.8199997V30.1499977z"/>
	<path d="M85.1963654,27.6899986v0.5299988h0.9199982v0.7000008h-0.9199982v0.5400009h0.9800034v0.7000008h-1.7900009V27h1.7900009
		v0.6899986H85.1963654z"/>
	<path d="M89.2863693,27.8099976c-0.1800003-0.1500015-0.3499985-0.2099991-0.5400009-0.2099991
		c-0.1999969,0-0.3499985,0.1199989-0.3499985,0.2700005c0,0.0600014,0.0299988,0.1199989,0.0800018,0.1599998
		c0.0899963,0.0800018,0.1200027,0.0900002,0.4899979,0.2000008c0.5500031,0.1599998,0.7799988,0.4199982,0.7799988,0.8899994
		c0,0.3600006-0.1100006,0.6300011-0.3199997,0.8199997c-0.2300034,0.1899986-0.5500031,0.2999992-0.9100037,0.2999992
		c-0.3700027,0-0.7600021-0.1199989-1.0899963-0.3600006l0.3499985-0.6599998
		c0.2600021,0.2200012,0.4800034,0.3199997,0.7200012,0.3199997s0.4000015-0.1199989,0.4000015-0.3100014
		c0-0.1699982-0.1100006-0.25-0.4899979-0.3600006c-0.3499985-0.0999985-0.4899979-0.1599998-0.5999985-0.2599983
		c-0.1699982-0.1399994-0.25-0.3499985-0.25-0.6199989c0-0.6300011,0.4400024-1.0600014,1.0699997-1.0600014
		c0.3300018,0,0.6800003,0.0900002,1,0.2599983L89.2863693,27.8099976z"/>
</g>
<g>
	<path d="M93.5863724,30.1499977H93.106369v-3.1599998h0.5400009c0.4800034,0,0.6800003,0.0499992,0.8899994,0.2000008
		c0.2099991,0.1699982,0.3499985,0.4500008,0.3499985,0.7400017c0,0.2599983-0.0999985,0.5099983-0.2699966,0.6699982
		c-0.1800003,0.1800003-0.4499969,0.2700005-0.8000031,0.2700005h-0.2200012v1.2799988H93.5863724z M93.7563705,28.4300003
		c0.25,0,0.3899994-0.0400009,0.5-0.1300011c0.0999985-0.0800018,0.1600037-0.2299995,0.1600037-0.3800011
		s-0.0699997-0.2900009-0.1800003-0.3699989c-0.1100006-0.0800018-0.2600021-0.1100006-0.5-0.1100006h-0.1600037v0.9900017
		H93.7563705z"/>
	<path d="M96.6463699,28.8999977c0,0.2799988,0.0200043,0.4099998,0.1000061,0.5400009
		c0.1100006,0.2000008,0.3399963,0.3199997,0.5899963,0.3199997s0.4700012-0.1199989,0.5899963-0.3199997
		c0.0800018-0.1300011,0.1000061-0.2599983,0.1000061-0.5400009v-1.9000015h0.4799957v2.0299988
		c0,0.2999992-0.0800018,0.5400009-0.2400055,0.7400017c-0.2200012,0.2799988-0.5700073,0.4500008-0.9199982,0.4500008
		c-0.3600006,0-0.6999969-0.1699982-0.9299927-0.4500008c-0.1699982-0.2099991-0.2400055-0.4399986-0.2400055-0.7400017v-2.0299988
		h0.4799957v1.9000015H96.6463699z"/>
	<path d="M100.0563736,27h0.4700012c0.3800049,0,0.5899963,0.0499992,0.7599945,0.1599998
		c0.2100067,0.1500015,0.3600006,0.4399986,0.3600006,0.7200012c0,0.2299995-0.0800018,0.4099998-0.2599945,0.5699997
		c0.3300018,0.1100006,0.5399933,0.4199982,0.5399933,0.7999992c0,0.2599983-0.1100006,0.5099983-0.3200073,0.6800003
		c-0.2100067,0.1699982-0.4100037,0.2299995-0.8300018,0.2299995h-0.7200012V27H100.0563736z M100.6863632,28.3499985
		c0.1900024,0,0.3000031-0.0299988,0.3800049-0.1100006s0.1300049-0.2200012,0.1300049-0.3600006
		c0-0.1300011-0.0500031-0.2599983-0.1300049-0.3400002s-0.1900024-0.1100006-0.3600006-0.1100006h-0.1699982v0.9199982
		C100.5363693,28.3499947,100.6863632,28.3499947,100.6863632,28.3499985z M100.8263626,29.6999969
		c0.2100067,0,0.3399963-0.0299988,0.4400024-0.0999985c0.1100006-0.0800018,0.1900024-0.2299995,0.1900024-0.3699989
		s-0.0800018-0.2900009-0.1900024-0.3699989c-0.1100006-0.0800018-0.25-0.0999985-0.4900055-0.0999985h-0.2400055v0.9500008
		h0.2900085V29.6999969z"/>
	<path d="M103.8163681,29.6999969h0.9299927v0.4500008h-1.4100037v-3.1599998h0.4799957v2.7099991H103.8163681z"/>
	<path d="M106.466362,30.1499977h-0.4799957v-3.1599998h0.4799957V30.1499977z"/>
	<path d="M109.4263687,27.6999969c-0.1499939-0.2400017-0.2599945-0.3100014-0.4700012-0.3100014
		c-0.2599945,0-0.4600067,0.1699982-0.4600067,0.3899994c0,0.0999985,0.0500031,0.1899986,0.1499939,0.2599983
		c0.0899963,0.0600014,0.0899963,0.0600014,0.5099945,0.2299995c0.5099945,0.2099991,0.7400055,0.5,0.7400055,0.9300003
		c0,0.5800018-0.4299927,1.0099983-1.0099945,1.0099983c-0.3500061,0-0.6399994-0.1500015-0.8200073-0.4199982
		c-0.1000061-0.1500015-0.1499939-0.2700005-0.1799927-0.5099983l0.4799957-0.1100006
		c0.0200043,0.1899986,0.0399933,0.2599983,0.0899963,0.3499985c0.0800018,0.1500015,0.2599945,0.25,0.4499969,0.25
		c0.3000031,0,0.5200043-0.2200012,0.5200043-0.5299988c0-0.1800003-0.0800018-0.3199997-0.2200012-0.4199982
		c-0.1100006-0.0699997-0.1100006-0.0699997-0.5399933-0.25c-0.4400024-0.1800003-0.6499939-0.4500008-0.6499939-0.7999992
		c0-0.4799995,0.4100037-0.8400002,0.9499969-0.8400002c0.3800049,0,0.6399994,0.1599998,0.8500061,0.5299988
		L109.4263687,27.6999969z"/>
	<path d="M113.1063614,28.2299995v-1.2400017h0.4799957v3.1599998h-0.4799957v-1.4700012h-1.3600006v1.4700012h-0.4799957
		v-3.1599998h0.4799957v1.2400017H113.1063614z"/>
	<path d="M115.6863632,30.1499977h-0.4799957v-3.1599998h0.4799957V30.1499977z"/>
	<path d="M117.246376,26.7799988l2.3000031,2.4000015v-2.1899986h0.4799957v3.3499985l-2.3000031-2.4000015v2.2099991h-0.4799957
		V26.7799988z"/>
	<path d="M124.5463638,28.5099983v0.1500015c0,0.4099998-0.0899963,0.7000008-0.2799988,0.9599991
		c-0.2700043,0.3699989-0.7200012,0.5999985-1.1999969,0.5999985c-0.8800049,0-1.6100006-0.7299995-1.6100006-1.6300011
		c0-0.9199982,0.7299957-1.6500015,1.6499939-1.6500015c0.3500061,0,0.6799927,0.1100006,0.9499969,0.3100014
		c0.1199951,0.0900002,0.1999969,0.1699982,0.3500061,0.3400002l-0.3399963,0.3300018
		c-0.2700043-0.3600006-0.5599976-0.5200005-0.9499969-0.5200005c-0.6699982,0-1.1799927,0.5200005-1.1799927,1.2000008
		c0,0.3499985,0.1300049,0.6399994,0.3800049,0.8699989c0.2200012,0.2000008,0.5,0.3199997,0.7700043,0.3199997
		c0.4700012,0,0.8999939-0.3600006,0.9400024-0.7999992h-0.7899933v-0.4500008h1.309967V28.5099983z"/>
</g>
</svg>
