<?xml version="1.0" encoding="utf-8"?>
<!-- Generator: Adobe Illustrator 26.0.3, SVG Export Plug-In . SVG Version: 6.00 Build 0)  -->
<svg version="1.1" id="Ebene_1" xmlns="http://www.w3.org/2000/svg" xmlns:xlink="http://www.w3.org/1999/xlink" x="0px" y="0px"
	 viewBox="0 0 62.4 64.6" style="enable-background:new 0 0 62.4 64.6;" xml:space="preserve">
<g>
	<path d="M29.2,33.7L0.1,23.8c0,0-0.1-0.1-0.1-0.1l0.5-1.5c0,0,0.1-0.1,0.1-0.1l29.6,10c0.6,0.2,1.3,0.2,2,0l29.6-10
		c0,0,0.1,0,0.1,0.1l0.5,1.5c0,0,0,0.1-0.1,0.1l-29.2,9.9C31.9,34.1,30.5,34.1,29.2,33.7z"/>
	<path d="M9.4,42.5v-5.1h1.9v13H9.4v-6.1H3.9v6.1H2v-13h1.9v5.1H9.4z"/>
	<path d="M22,47.2l-1.4,3.2h-2.1l6.3-13.9l6.1,13.9h-2.1l-1.3-3.2H22z M24.8,41l-2,4.4h3.9L24.8,41z"/>
	<path d="M43.2,40.2c-0.6-1-1-1.3-1.9-1.3c-1.1,0-1.9,0.7-1.9,1.6c0,0.4,0.2,0.8,0.6,1.1c0.4,0.3,0.4,0.3,2,1c2.1,0.9,3,2.1,3,3.9
		c0,2.4-1.7,4.2-4.1,4.2c-1.4,0-2.6-0.6-3.3-1.7c-0.4-0.6-0.6-1.1-0.7-2.1l1.9-0.5c0.1,0.8,0.2,1.1,0.4,1.4c0.3,0.6,1,1,1.8,1
		c1.2,0,2.1-0.9,2.1-2.2c0-0.7-0.3-1.3-0.9-1.7c-0.4-0.3-0.4-0.3-2.2-1c-1.8-0.8-2.6-1.8-2.6-3.3c0-2,1.6-3.5,3.8-3.5
		c1.5,0,2.6,0.7,3.4,2.2L43.2,40.2z"/>
	<path d="M55.6,50.4h-1.9v-13h2.2c1.9,0,2.7,0.2,3.6,0.8c0.9,0.7,1.4,1.9,1.4,3.1c0,1.1-0.4,2.1-1.1,2.8c-0.7,0.7-1.8,1.1-3.2,1.1
		h-0.9V50.4z M56.4,43.3c1,0,1.6-0.2,2-0.5c0.4-0.4,0.6-0.9,0.6-1.6s-0.3-1.2-0.7-1.5c-0.5-0.3-1-0.5-2-0.5h-0.6v4.1H56.4z"/>
	<path d="M27.2,26.3l1-0.9c0,0,0-0.1,0-0.1L12.4,7.2c0,0-0.1,0-0.1,0L11,8.4c0,0,0,0.1,0,0.1l16.2,17.8
		C27.2,26.3,27.2,26.3,27.2,26.3z"/>
	<path d="M26.3,27.9l0.6-1.2c0,0,0-0.1,0-0.1L6,15.1c0,0-0.1,0-0.1,0l-0.8,1.6c0,0,0,0.1,0,0.1l21.1,11.1
		C26.3,27.9,26.3,27.9,26.3,27.9z"/>
	<path d="M28.7,25.1l1.2-0.5c0,0,0.1-0.1,0-0.1L21.2,1.9c0,0-0.1-0.1-0.1,0l-1.6,0.7c0,0-0.1,0.1,0,0.1L28.6,25
		C28.6,25.1,28.6,25.1,28.7,25.1z"/>
	<path d="M35.2,26.3l-1-0.9c0,0,0-0.1,0-0.1L50,7.2c0,0,0.1,0,0.1,0l1.3,1.2c0,0,0,0.1,0,0.1L35.3,26.3
		C35.3,26.3,35.2,26.3,35.2,26.3z"/>
	<path d="M36.1,27.9l-0.6-1.2c0,0,0-0.1,0-0.1l20.9-11.5c0,0,0.1,0,0.1,0l0.8,1.6c0,0,0,0.1,0,0.1L36.2,27.9
		C36.2,27.9,36.1,27.9,36.1,27.9z"/>
	<path d="M33.8,25.1l-1.2-0.5c0,0-0.1-0.1,0-0.1l8.7-22.6c0,0,0.1-0.1,0.1,0l1.6,0.7c0,0,0.1,0.1,0,0.1L33.9,25
		C33.8,25.1,33.8,25.1,33.8,25.1z"/>
	<path d="M31.8,24.4h-1.3c0,0-0.1,0-0.1-0.1L30.2,0.1c0,0,0-0.1,0.1-0.1h1.8c0,0,0.1,0,0.1,0.1L31.8,24.4
		C31.9,24.4,31.9,24.4,31.8,24.4z"/>
	<g>
		<path d="M3.8,56.2v-1.3h0.5v3.3H3.8v-1.5H2.4v1.5H1.9v-3.3h0.5v1.3H3.8z"/>
		<path d="M6.8,55.4v0.8H8v0.5H6.8v1.1h1.3v0.5H6.3v-3.3h1.8v0.5H6.8z"/>
		<path d="M10.4,58.2H9.9v-3.3h0.5V58.2z"/>
		<path d="M12.3,54.9H13c0.6,0,0.9,0.1,1.2,0.3c0.4,0.3,0.6,0.8,0.6,1.3c0,0.6-0.2,1-0.7,1.3c-0.3,0.2-0.6,0.3-1.2,0.3h-0.7V54.9z
			 M13.1,57.7c0.4,0,0.6-0.1,0.9-0.2c0.3-0.2,0.4-0.6,0.4-0.9c0-0.4-0.2-0.7-0.4-1c-0.2-0.2-0.5-0.2-0.9-0.2h-0.2v2.4H13.1z"/>
		<path d="M17.2,55.4v0.8h1.3v0.5h-1.3v1.1h1.3v0.5h-1.8v-3.3h1.8v0.5H17.2z"/>
		<path d="M20.8,57.7h1v0.5h-1.4v-3.3h0.5V57.7z"/>
		<path d="M23.4,54.9h0.5c0.4,0,0.6,0,0.8,0.2c0.2,0.2,0.4,0.5,0.4,0.8c0,0.2-0.1,0.4-0.3,0.6c0.3,0.1,0.6,0.4,0.6,0.8
			c0,0.3-0.1,0.5-0.3,0.7c-0.2,0.2-0.4,0.2-0.9,0.2h-0.7V54.9z M24,56.3c0.2,0,0.3,0,0.4-0.1c0.1-0.1,0.1-0.2,0.1-0.4
			c0-0.1-0.1-0.3-0.1-0.4c-0.1-0.1-0.2-0.1-0.4-0.1h-0.2v1H24z M24.2,57.7c0.2,0,0.3,0,0.5-0.1c0.1-0.1,0.2-0.2,0.2-0.4
			c0-0.1-0.1-0.3-0.2-0.4c-0.1-0.1-0.3-0.1-0.5-0.1h-0.2v1H24.2z"/>
		<path d="M27.6,55.4v0.8h1.3v0.5h-1.3v1.1h1.3v0.5h-1.8v-3.3h1.8v0.5H27.6z"/>
		<path d="M32.8,58.2h-0.6l-0.9-1.4h-0.1v1.4h-0.5v-3.3h0.6c0.4,0,0.7,0.1,0.9,0.2c0.2,0.2,0.4,0.5,0.4,0.8c0,0.5-0.3,0.8-0.7,0.9
			L32.8,58.2z M31.4,56.4c0.2,0,0.4,0,0.5-0.1c0.1-0.1,0.2-0.3,0.2-0.4c0-0.2-0.1-0.3-0.2-0.4c-0.1-0.1-0.3-0.1-0.5-0.1h-0.2v1H31.4
			z"/>
		<path d="M37.5,56.5v0.2c0,0.4-0.1,0.7-0.3,1c-0.3,0.4-0.7,0.6-1.2,0.6c-0.9,0-1.7-0.8-1.7-1.7c0-1,0.7-1.7,1.7-1.7
			c0.4,0,0.7,0.1,1,0.3c0.1,0.1,0.2,0.2,0.4,0.4L37,55.9c-0.3-0.4-0.6-0.5-1-0.5c-0.7,0-1.2,0.5-1.2,1.3c0,0.4,0.1,0.7,0.4,0.9
			c0.2,0.2,0.5,0.3,0.8,0.3c0.5,0,0.9-0.4,1-0.8h-0.8v-0.5H37.5z"/>
	</g>
	<g>
		<path d="M42.4,57.6l-0.2,0.6h-0.9l1.2-3.3h0.9l1.2,3.3h-0.9l-0.2-0.6H42.4z M43,55.9L42.7,57h0.7L43,55.9z"/>
		<path d="M48.1,55.8c-0.2-0.2-0.4-0.2-0.6-0.2c-0.2,0-0.4,0.1-0.4,0.3c0,0.1,0,0.1,0.1,0.2c0.1,0.1,0.1,0.1,0.5,0.2
			c0.6,0.2,0.8,0.4,0.8,0.9c0,0.4-0.1,0.7-0.3,0.9c-0.2,0.2-0.6,0.3-0.9,0.3c-0.4,0-0.8-0.1-1.1-0.4l0.4-0.7
			c0.3,0.2,0.5,0.3,0.7,0.3s0.4-0.1,0.4-0.3c0-0.2-0.1-0.3-0.5-0.4c-0.4-0.1-0.5-0.2-0.6-0.3c-0.2-0.1-0.3-0.4-0.3-0.7
			c0-0.7,0.4-1.1,1.1-1.1c0.3,0,0.7,0.1,1,0.3L48.1,55.8z"/>
		<path d="M51.1,58.2h-0.8v-3.3h0.8V58.2z"/>
		<path d="M53.8,57.6l-0.2,0.6h-0.9l1.2-3.3h0.9l1.2,3.3h-0.9l-0.2-0.6H53.8z M54.4,55.9L54,57h0.7L54.4,55.9z"/>
		<path d="M57.6,54.9h0.8l1.5,2v-2h0.8v3.3H60l-1.5-2v2h-0.8V54.9z"/>
	</g>
	<g>
		<path d="M3.7,61.9c-0.2-0.2-0.4-0.2-0.6-0.2c-0.2,0-0.4,0.1-0.4,0.3c0,0.1,0,0.1,0.1,0.2c0.1,0.1,0.1,0.1,0.5,0.2
			c0.6,0.2,0.8,0.4,0.8,0.9c0,0.4-0.1,0.7-0.3,0.9c-0.2,0.2-0.6,0.3-0.9,0.3c-0.4,0-0.8-0.1-1.1-0.4l0.4-0.7
			c0.3,0.2,0.5,0.3,0.7,0.3c0.2,0,0.4-0.1,0.4-0.3c0-0.2-0.1-0.3-0.5-0.4c-0.4-0.1-0.5-0.2-0.6-0.3c-0.2-0.1-0.3-0.4-0.3-0.7
			C1.9,61.4,2.3,61,3,61c0.3,0,0.7,0.1,1,0.3L3.7,61.9z"/>
		<path d="M6.7,64.4H5.9v-2.6H5.2v-0.7h2.2v0.7H6.7V64.4z"/>
		<path d="M9.5,62.9c0,0.4,0,0.5,0.1,0.6c0.1,0.2,0.3,0.3,0.5,0.3c0.2,0,0.4-0.1,0.5-0.3c0.1-0.1,0.1-0.2,0.1-0.6v-1.8h0.8V63
			c0,0.5-0.1,0.8-0.3,1c-0.3,0.3-0.6,0.5-1.1,0.5c-0.5,0-0.9-0.2-1.2-0.5c-0.2-0.2-0.2-0.5-0.2-1v-1.9h0.8V62.9z"/>
		<path d="M12.9,61.1h1.2c0.9,0,1.6,0.8,1.6,1.7c0,0.9-0.7,1.7-1.6,1.7h-1.2V61.1z M14,63.6c0.3,0,0.5-0.1,0.7-0.3
			c0.2-0.2,0.2-0.4,0.2-0.7c0-0.2-0.1-0.5-0.2-0.6c-0.2-0.2-0.4-0.3-0.7-0.3h-0.2v1.9H14z"/>
		<path d="M18,64.4h-0.8v-3.3H18V64.4z"/>
		<path d="M20.3,61.8v0.6h0.9v0.7h-0.9v0.6h1v0.7h-1.8v-3.3h1.8v0.7H20.3z"/>
		<path d="M24.5,61.9c-0.2-0.2-0.4-0.2-0.6-0.2c-0.2,0-0.4,0.1-0.4,0.3c0,0.1,0,0.1,0.1,0.2c0.1,0.1,0.1,0.1,0.5,0.2
			c0.6,0.2,0.8,0.4,0.8,0.9c0,0.4-0.1,0.7-0.3,0.9c-0.2,0.2-0.6,0.3-0.9,0.3c-0.4,0-0.8-0.1-1.1-0.4l0.4-0.7
			c0.3,0.2,0.5,0.3,0.7,0.3s0.4-0.1,0.4-0.3c0-0.2-0.1-0.3-0.5-0.4c-0.4-0.1-0.5-0.2-0.6-0.3c-0.2-0.1-0.3-0.4-0.3-0.7
			c0-0.7,0.4-1.1,1.1-1.1c0.3,0,0.7,0.1,1,0.3L24.5,61.9z"/>
	</g>
	<g>
		<path d="M28.9,64.4h-0.5v-3.3H29c0.5,0,0.7,0,0.9,0.2c0.2,0.2,0.4,0.5,0.4,0.8c0,0.3-0.1,0.5-0.3,0.7c-0.2,0.2-0.5,0.3-0.8,0.3
			h-0.2V64.4z M29.1,62.6c0.3,0,0.4,0,0.5-0.1c0.1-0.1,0.2-0.2,0.2-0.4c0-0.2-0.1-0.3-0.2-0.4c-0.1-0.1-0.3-0.1-0.5-0.1h-0.2v1H29.1
			z"/>
		<path d="M32.1,63.1c0,0.3,0,0.4,0.1,0.6c0.1,0.2,0.3,0.3,0.6,0.3c0.3,0,0.5-0.1,0.6-0.3c0.1-0.1,0.1-0.3,0.1-0.6v-2H34v2.1
			c0,0.3-0.1,0.6-0.2,0.8c-0.2,0.3-0.6,0.5-0.9,0.5c-0.4,0-0.7-0.2-1-0.5c-0.2-0.2-0.2-0.5-0.2-0.8v-2.1h0.5V63.1z"/>
		<path d="M35.6,61.1H36c0.4,0,0.6,0,0.8,0.2c0.2,0.2,0.4,0.5,0.4,0.8c0,0.2-0.1,0.4-0.3,0.6c0.3,0.1,0.6,0.4,0.6,0.8
			c0,0.3-0.1,0.5-0.3,0.7c-0.2,0.2-0.4,0.2-0.9,0.2h-0.7V61.1z M36.2,62.5c0.2,0,0.3,0,0.4-0.1c0.1-0.1,0.1-0.2,0.1-0.4
			c0-0.1-0.1-0.3-0.1-0.4c-0.1-0.1-0.2-0.1-0.4-0.1h-0.2v1H36.2z M36.4,63.9c0.2,0,0.3,0,0.5-0.1c0.1-0.1,0.2-0.2,0.2-0.4
			c0-0.1-0.1-0.3-0.2-0.4c-0.1-0.1-0.3-0.1-0.5-0.1h-0.2v1H36.4z"/>
		<path d="M39.4,63.9h1v0.5h-1.4v-3.3h0.5V63.9z"/>
		<path d="M42.1,64.4h-0.5v-3.3h0.5V64.4z"/>
		<path d="M45.2,61.8c-0.2-0.3-0.3-0.3-0.5-0.3c-0.3,0-0.5,0.2-0.5,0.4c0,0.1,0,0.2,0.2,0.3c0.1,0.1,0.1,0.1,0.5,0.2
			c0.5,0.2,0.8,0.5,0.8,1c0,0.6-0.4,1.1-1,1.1c-0.4,0-0.7-0.2-0.8-0.4c-0.1-0.2-0.2-0.3-0.2-0.5l0.5-0.1c0,0.2,0,0.3,0.1,0.4
			c0.1,0.2,0.3,0.3,0.5,0.3c0.3,0,0.5-0.2,0.5-0.6c0-0.2-0.1-0.3-0.2-0.4c-0.1-0.1-0.1-0.1-0.5-0.3c-0.5-0.2-0.7-0.5-0.7-0.8
			c0-0.5,0.4-0.9,1-0.9c0.4,0,0.7,0.2,0.9,0.6L45.2,61.8z"/>
		<path d="M48.9,62.4v-1.3h0.5v3.3h-0.5v-1.5h-1.4v1.5h-0.5v-3.3h0.5v1.3H48.9z"/>
		<path d="M51.6,64.4h-0.5v-3.3h0.5V64.4z"/>
		<path d="M53.2,60.8l2.4,2.5v-2.3h0.5v3.5l-2.4-2.5v2.3h-0.5V60.8z"/>
		<path d="M60.7,62.7v0.2c0,0.4-0.1,0.7-0.3,1c-0.3,0.4-0.7,0.6-1.2,0.6c-0.9,0-1.7-0.8-1.7-1.7c0-1,0.7-1.7,1.7-1.7
			c0.4,0,0.7,0.1,1,0.3c0.1,0.1,0.2,0.2,0.4,0.4L60.2,62c-0.3-0.4-0.6-0.5-1-0.5c-0.7,0-1.2,0.5-1.2,1.3c0,0.4,0.1,0.7,0.4,0.9
			c0.2,0.2,0.5,0.3,0.8,0.3c0.5,0,0.9-0.4,1-0.8h-0.8v-0.5H60.7z"/>
	</g>
</g>
</svg>
